<?xml version="1.0" encoding="UTF-8"?>
<svg id="Layer_1" data-name="Layer 1" xmlns="http://www.w3.org/2000/svg" viewBox="0 0 70.17 50">
  <defs>
    <style>
      .cls-1 {
        fill-rule: evenodd;
      }

      .cls-1, .cls-2, .cls-3 {
        fill: #f2f2f2;
      }

      .cls-2 {
        stroke: #f2f2f2;
        stroke-miterlimit: 10;
        stroke-width: .25px;
      }
    </style>
  </defs>
  <g>
    <path id="CompoundPath_1" data-name="CompoundPath 1" class="cls-1" d="M27,22.33c-.18.01-.35.04-.37.05-.04.04.15.71.64,2.31.11.35.24.8.3,1s.13.44.16.54.1.31.14.45.09.29.1.34.06.2.1.34c.04.14.11.38.15.53.21.71.64,2.14.96,3.21l.12.39h1.71s1.71.02,1.71.02l.03-.11c.03-.09.17-.59.61-2.22.03-.11.08-.27.1-.36s.07-.25.1-.38.08-.3.11-.39.13-.47.23-.85c.27-.99.3-1.08.33-1.12.03-.03.14.3.29.88.23.87.36,1.38.45,1.68.03.08.09.34.15.58.06.24.13.49.15.58.03.08.1.34.15.58.11.44.15.59.25.93l.06.19h1.67c1.55,0,1.67,0,1.7-.06.02-.03.1-.28.18-.55.16-.55.22-.73.29-.99.03-.09.08-.25.1-.35.11-.38.15-.51.2-.66.03-.09.08-.24.1-.33.51-1.67.8-2.62.86-2.77.02-.05.07-.22.11-.38.07-.24.48-1.6.61-2,.08-.25.13-.4.18-.59.03-.11.08-.26.11-.33.04-.12.04-.13-.01-.15-.03-.01-.75-.02-1.59-.02s-1.55,0-1.6.04c-.06.03-.1.13-.18.51-.06.26-.13.56-.15.67-.03.11-.08.32-.1.46s-.08.35-.1.46-.09.4-.14.63c-.05.24-.11.52-.14.63-.09.38-.5,2.15-.5,2.17,0,.06-.06.01-.08-.06,0-.04-.08-.3-.15-.57s-.18-.65-.23-.83-.12-.42-.14-.53c-.03-.1-.11-.42-.18-.7-.38-1.45-.52-2.01-.6-2.38-.05-.22-.1-.42-.1-.45-.02-.06-.39-.08-1.48-.08-1.09,0-1.62.03-1.68.09-.02.02-.18.61-.36,1.32-.56,2.23-.66,2.64-.79,3.12-.07.26-.14.52-.15.58-.07.28-.15.49-.17.49-.04,0-.13-.31-.26-.97-.12-.54-.3-1.38-.41-1.84-.03-.11-.1-.41-.15-.66s-.13-.55-.15-.66c-.04-.16-.22-.95-.31-1.36-.01-.07-.05-.07-.33-.09-.37-.02-2.1-.02-2.58,0M42.78,22.37c-.05.1-.11,3.35-.11,6.42v2.73h7.23v-2.28h-3.92v-1.29h3.69v-1.05c0-.58,0-1.06,0-1.06s-.82-.02-1.81-.03c-.99-.02-1.81-.03-1.81-.04,0,0-.03-.24-.04-.52l-.03-.5h3.86l.02-.59c.01-.4,0-.6-.02-.63-.02-.02-.32-.19-.66-.37-.34-.18-.84-.45-1.1-.59l-.48-.26h-2.38c-2.29-.02-2.38-.02-2.42.05M27.21,34.36c0,1.1,0,4.17.02,6.81l.02,4.82h3.66l.02-.69c.01-.38.03-1.99.04-3.58s.03-2.91.03-2.93c.02-.06.06,0,1.01,1.2.44.56.92,1.17,1.07,1.36.15.19.62.79,1.06,1.34.43.55.92,1.16,1.07,1.36.15.2.38.47.49.61.11.14.3.37.41.51s.3.37.41.52.24.28.28.31c.07.05.31.05,1.91.05s1.86,0,1.88-.02c.05-.02.05-.65.05-6.85v-6.83h-3.85l.02,3.86c.01,2.57,0,3.86-.02,3.86s-.68-.8-1.68-2.07c-.3-.38-.66-.83-.79-1s-.47-.6-.75-.96-.73-.94-1-1.29-.79-1.03-1.16-1.51l-.66-.87h-3.57v2M42.43,39.15c0,5.4,0,6.8.04,6.82.06.04,5.21.06,7.08.02l1.49-.02v-1.57c.01-.86.01-1.58,0-1.6-.03-.03-1.39-.08-3.39-.11l-1.42-.02v-2.03h4.75v-3.18l-1.35-.02c-.74-.01-1.81-.04-2.38-.06l-1.03-.05.03-.87c.01-.48.03-.87.04-.88s1.12-.02,2.48-.03h2.46v-3.2h-8.78v6.79"/>
    <path id="CompoundPath_1-2" data-name="CompoundPath 1-2" class="cls-3" d="M11.74,39.11c0-.92.23-1.97.56-2.75.34-.8.93-1.65,1.53-2.25.61-.6,1.47-1.18,2.27-1.52.8-.33,1.86-.56,2.79-.56s1.99.22,2.79.56c.8.34,1.67.92,2.27,1.52.6.6,1.19,1.46,1.53,2.25.34.79.56,1.84.56,2.75s-.23,1.97-.56,2.75c-.34.8-.93,1.65-1.53,2.25-.61.6-1.47,1.18-2.27,1.52-.8.33-1.86.56-2.79.56s-1.99-.22-2.79-.56c-.8-.34-1.67-.92-2.27-1.52-.6-.6-1.19-1.46-1.53-2.25-.34-.79-.56-1.84-.56-2.75h0ZM15.57,40.51c.2.48.41.78.78,1.14.37.37.66.56,1.15.77.49.21.84.28,1.4.28s.91-.07,1.4-.28c.48-.2.78-.4,1.15-.77.37-.37.57-.66.78-1.14.21-.49.28-.85.28-1.4s-.08-.91-.28-1.4c-.2-.48-.41-.78-.78-1.14-.37-.37-.66-.56-1.15-.77-.49-.21-.84-.28-1.4-.28s-.91.07-1.4.28c-.48.2-.78.4-1.15.77-.37.37-.57.66-.78,1.14-.21.49-.28.85-.28,1.4s.08.91.28,1.4Z"/>
    <g id="Group_1" data-name="Group 1">
      <g id="Group_1-2" data-name="Group 1-2">
        <path id="CompoundPath_1-2" data-name="CompoundPath 1" class="cls-1" d="M35.79,10.53c-.09.05-.32.17-.5.27-.58.31-.63.35-1.05.56-.23.12-.51.27-.64.34-.12.07-.96.51-1.02.54-.06.03-.26.14-.45.24-.19.1-.36.19-.38.2s-.13.08-.26.14c-.12.07-.36.19-.53.28-.17.09-.33.17-.34.19-.02.01-.2.11-.4.21-.33.17-.59.31-1.17.63-.1.06-.41.22-.67.36-.43.22-.89.47-1.45.78-.1.05-.31.16-.48.26-.17.09-.47.25-.67.35s-.52.28-.71.38c-.19.1-.37.19-.4.21-.03.02-.08.02-.11.01-.05-.02-.05-.16-.06-1.07,0-.58-.01-1.08-.03-1.13-.01-.05-.05-.12-.09-.16-.16-.18-.1-.17-2.89-.17h-2.46c-.07,0-.19.05-.24.09h-.02c-.07.07-.14.17-.16.24-.03.1-.04.73-.02,2.78l.02,2.65-.08.07s-.25.16-.46.26-.47.25-.59.31c-.11.06-.31.16-.45.24-.46.24-1.22.65-1.74.94-.16.09-.39.21-.52.28-.12.07-.29.16-.38.2-.08.05-.31.16-.5.26s-.44.24-.57.31-.38.21-.57.31-.44.24-.57.31c-.25.14-.61.34-.89.48-.1.05-.2.11-.23.12-.02.02-.18.1-.35.19-1.27.66-1.78.95-1.78.99s1.44.04,4.22.04h4.21s.27-.14.27-.14c.15-.08.28-.15.29-.15s.17-.08.36-.19c.18-.1.34-.19.35-.19s.22-.11.47-.24c.25-.13.58-.31.73-.39s.35-.18.43-.23c.21-.12.6-.32,1.05-.55.21-.11.46-.24.55-.29.45-.24,1.26-.67,1.77-.94.45-.24.84-.44,1.27-.67.39-.21.56-.3,1.4-.73.23-.12.43-.22.45-.24.02-.01.22-.12.45-.24.23-.12.48-.25.57-.3.08-.05.3-.16.47-.25.49-.26.97-.51,1.16-.61.1-.05.33-.17.52-.27.61-.32.93-.48,1.1-.58.1-.05.33-.17.52-.27.19-.1.45-.24.59-.31s.43-.22.66-.34c.23-.12.5-.26.6-.31.36-.19.6-.32.98-.52.21-.11.46-.24.55-.29s.37-.19.62-.32l.44-.23.21.11c.12.06.39.2.61.32s.51.26.64.33.34.18.46.24.51.27.86.46c.35.19.78.41.95.5.17.09.39.21.48.26.1.05.37.2.62.33.25.13.52.27.6.32s.25.13.36.19c.11.05.25.12.29.16s.27.15.5.27c.23.12.47.24.53.28.13.07.81.44,1.15.61.26.14.59.31,1.02.55.18.1.47.25.64.34.17.09.65.35,1.07.57.88.47,2.01,1.07,2.31,1.23.26.14.64.34.86.46.1.05.27.15.4.21.22.12.55.29,1,.53.12.07.25.14.29.16s.17.09.29.16.46.25.76.41.66.36.83.44c.16.09.38.2.48.26l.18.11h4.25c2.34,0,4.26,0,4.28-.02.04-.04-.13-.15-.53-.35-.23-.12-.46-.24-.52-.27s-.21-.12-.34-.19c-.26-.14-1.51-.82-1.77-.96-.08-.05-.25-.14-.38-.21-.12-.07-.28-.15-.36-.19-.27-.15-.38-.21-1-.54-.34-.18-.74-.4-.88-.47-.28-.15-.48-.26-.91-.49-.31-.16-.77-.41-1.3-.7-.38-.21-.94-.51-1.3-.7-.12-.07-.29-.16-.38-.21s-.45-.24-.81-.43-.67-.36-.69-.37-.19-.11-.38-.21-.39-.21-.45-.24c-.1-.06-.35-.19-.77-.42-.49-.26-1.03-.56-1.2-.65-.1-.06-.23-.13-.29-.16s-.17-.09-.26-.14c-.08-.05-.27-.15-.41-.22-.5-.26-1.05-.56-1.09-.59-.02-.01-.2-.12-.41-.22s-.39-.21-.41-.22c-.02-.01-.15-.09-.29-.16s-.43-.23-.64-.34c-.21-.11-.52-.28-.69-.37-.43-.23-.73-.39-.91-.49-.08-.05-.25-.14-.38-.2s-.31-.16-.41-.22c-.19-.1-.63-.34-1-.54-.1-.06-.39-.21-.64-.34-.49-.26-.86-.46-1.26-.68-.15-.09-.8-.43-1.12-.61-.1-.05-.41-.22-.69-.38-.28-.16-.63-.34-.77-.41-.14-.07-.27-.14-.29-.16s-.15-.09-.3-.16c-.14-.07-.34-.19-.45-.24-.08-.08-.19-.12-.22-.12s-.13.04-.22.09M24.72,22.75c-.29.19-.75.5-1.01.68-.94.64-2.04,1.25-3.27,1.82-1.27.59-3.07,1.33-4.14,1.71-.23.08-.42.16-.42.17,0,.04,4.49.07,6.8.05,2.05-.02,2.64-.04,2.68-.09.03-.03-.04-4.58-.07-4.63-.03-.05-.1-.01-.56.29M53.53,26.34c-.35.13-.59.36-.7.7-.05.15-.06.93-.06,9.54v9.37h.92c.7,0,.92,0,.93-.04,0-.02.03-.23.05-.45.06-.72.25-1.35.59-2.01.28-.54.59-.95,1.07-1.42,1.09-1.06,2.55-1.65,4.09-1.65s.91.06,1.26.13c1.68.36,3.18,1.49,3.92,2.98.38.75.57,1.46.61,2.29v.15s1.52,0,1.52,0c1.69,0,1.69.01,2-.22.1-.07.22-.2.27-.28l.1-.16v-2.88c0-3.73.13-3.2-1.3-5.53-.48-.79-1.01-1.64-1.16-1.89s-.48-.78-.72-1.17-.52-.85-.63-1.02-.33-.54-.5-.82-.41-.67-.53-.87-.25-.4-.28-.46c-.03-.06-.23-.38-.44-.71-.36-.59-.93-1.5-1.51-2.45-.4-.65-.7-.91-1.31-1.11l-.29-.1h-3.86c-3.52,0-3.88,0-4.02.06M22.19,28.39c-.2,0-1.11.02-2.03.05-2.31.05-2.85.08-4.6.26-2.16.22-1.34.12-4.04.5-1.14.2-2.9.48-3.95.7-.37.08-2.77.55-3.34.66-.17.03-.15.03.17.02,2.6-.12,10.63-.36,13.89.04,2.08.27,2.71.56,3.79,1.01,1.17.55,1.94,1.01,2.86,1.76.19.17.36.31.39.31.04,0,.04-.5.03-2.68-.01-1.47-.05-2.57-.05-2.59,0-.03-.31-.04-1.38-.04-.75,0-1.53.01-1.73.02M60.73,28.49c.18.05.43.22.53.36.09.14,2.16,3.49,2.54,4.1,1.13,1.84,1.43,2.34,1.43,2.4,0,.14-.15.16-.53.05-.1-.03-9.11-2.47-9.23-2.49-.04,0-.14-.07-.21-.13-.26-.22-.25-.13-.25-2.18s0-1.84.06-1.91c.07-.1.17-.18.27-.21.12-.04,5.25-.03,5.39,0M11.27,34.21c-.4.06-3.91.56-6.03.87-.91.13-1.97.28-2.36.34s-1.13.16-1.65.24c-.52.07-.99.14-1.03.16-.08.02-.08.02-.02.05.04.02.5.09,1.03.16.53.07,1.77.25,2.75.39s1.94.28,2.14.31,1.09.16,2.01.29c2.29.33,2.42.35,2.43.33s.05-.18.1-.38c.18-.78.46-1.55.86-2.32.12-.24.22-.44.22-.45,0-.03-.1-.02-.46.03M10.34,41.57c-.1.02-.45.07-.79.12-1.83.26-3.4.49-3.41.5-.03.03.09.05,1.31.23.66.09,1.75.25,2.42.34s1.22.16,1.23.16c0,0-.03-.14-.09-.3s-.16-.46-.22-.68c-.13-.44-.12-.43-.45-.37M59.79,42c-1.33.2-2.48.99-3.11,2.15-.3.55-.43,1.08-.43,1.79s.04.79.2,1.27c.29.86.97,1.65,1.83,2.15.12.07.23.13.23.13s.1.04.19.08c.55.25,1.02.34,1.71.34.64,0,1.16-.09,1.6-.28.58-.25.96-.49,1.34-.85.96-.9,1.41-2.19,1.21-3.43-.03-.18-.07-.36-.08-.4-.02-.04-.05-.16-.09-.27-.08-.24-.35-.77-.48-.96-.05-.07-.11-.15-.13-.18-.11-.15-.69-.69-.88-.82-.87-.6-2.06-.88-3.11-.72"/>
      </g>
    </g>
    <polygon class="cls-1" points=".14 .2 54.74 .2 54.74 18.81 54.06 18.44 54.06 .88 .77 .88 .77 33.51 .14 33.6 .14 .2"/>
  </g>
  <g>
    <path class="cls-2" d="M1.8,3.39c-.1-.04-.17-.11-.23-.19-.05-.08-.08-.18-.09-.29h.15c0,.13.06.22.15.29.09.07.21.11.36.11.14,0,.25-.03.33-.09.08-.06.12-.14.12-.24,0-.09-.04-.16-.11-.22-.08-.06-.2-.1-.37-.14-.21-.05-.37-.11-.46-.19-.09-.08-.14-.18-.14-.31,0-.14.05-.25.16-.33.11-.08.25-.12.43-.12s.34.05.45.14c.11.09.17.22.17.38h-.15c0-.12-.05-.21-.13-.28-.08-.07-.2-.1-.34-.1s-.24.03-.32.09c-.08.06-.12.13-.12.23,0,.09.04.16.11.21.07.06.2.1.38.14.21.05.37.11.46.19s.14.18.14.3c0,.14-.05.26-.16.34-.11.08-.26.13-.44.13-.13,0-.24-.02-.34-.07Z"/>
    <path class="cls-2" d="M3.2,1.71h.15s0,1.72,0,1.72h-.15s0-1.72,0-1.72Z"/>
    <path class="cls-2" d="M3.91,1.71h.14s1.04,1.46,1.04,1.46v-1.46s.15,0,.15,0v1.72s-.14,0-.14,0l-1.04-1.46v1.46s-.15,0-.15,0v-1.72Z"/>
    <path class="cls-2" d="M6.09,3.34c-.13-.08-.24-.18-.31-.32-.07-.13-.11-.29-.11-.46s.04-.32.11-.46c.07-.13.18-.24.31-.32.13-.08.28-.11.45-.11.2,0,.37.05.52.16.15.11.25.25.31.43h-.16c-.05-.14-.13-.24-.25-.32-.12-.08-.26-.12-.41-.12-.14,0-.26.03-.37.09s-.19.15-.26.26c-.06.11-.09.24-.09.38s.03.27.09.38c.06.11.15.2.26.26s.23.09.37.09c.16,0,.3-.04.43-.12.12-.08.21-.19.25-.34h.16c-.03.12-.09.23-.17.32-.08.09-.18.16-.29.21-.11.05-.24.07-.37.07-.17,0-.32-.04-.45-.11Z"/>
    <path class="cls-2" d="M7.8,1.71h1.01s0,.14,0,.14h-.86v.63h.8s0,.14,0,.14h-.8v.67h.89s0,.14,0,.14h-1.04s0-1.72,0-1.72Z"/>
    <path class="cls-2" d="M9.85,3.31l.73-.67c.09-.08.16-.16.2-.23.04-.07.06-.14.06-.22,0-.11-.04-.2-.11-.27-.08-.07-.17-.1-.29-.1s-.22.04-.3.11c-.08.08-.12.18-.12.3h-.14c0-.11.03-.21.08-.29.05-.08.11-.15.2-.19s.18-.07.29-.07.2.02.28.06c.08.04.15.1.19.18.05.08.07.16.07.26s-.03.19-.08.28c-.05.09-.13.19-.24.28l-.58.53h.94s0,.14,0,.14h-1.18s0-.11,0-.11Z"/>
    <path class="cls-2" d="M11.74,3.35c-.1-.07-.18-.17-.23-.31-.05-.13-.08-.29-.08-.47s.03-.34.08-.47c.05-.13.13-.24.23-.31.1-.07.22-.11.36-.11s.26.04.36.11c.1.07.18.17.23.31s.08.29.08.47-.03.34-.08.47c-.05.13-.13.24-.23.31-.1.07-.22.11-.36.11s-.26-.04-.36-.11ZM11.64,2.96c.04.11.1.2.18.26.08.06.17.09.28.09s.2-.03.28-.09c.08-.06.14-.15.18-.26.04-.11.06-.24.06-.4,0-.23-.05-.41-.14-.55-.09-.13-.22-.2-.38-.2s-.29.07-.38.2c-.09.13-.14.31-.14.55,0,.15.02.28.06.4Z"/>
    <path class="cls-2" d="M13.4,2.13h-.39s0-.14,0-.14h.23c.06,0,.1,0,.13-.03.02-.02.04-.05.05-.1l.02-.15h.12s0,1.72,0,1.72h-.15s0-1.3,0-1.3Z"/>
    <path class="cls-2" d="M14.28,3.38c-.09-.05-.17-.12-.22-.21-.05-.09-.08-.19-.08-.3,0-.15.05-.29.15-.44l.5-.73h.17s-.44.64-.44.64c.08-.03.16-.05.25-.05.11,0,.21.02.31.07.09.05.16.12.21.21.05.09.08.19.08.3s-.03.21-.08.3-.13.16-.22.21c-.09.05-.2.07-.32.07s-.22-.02-.32-.07ZM14.19,3.11c.04.07.1.12.17.16.07.04.15.06.25.06s.17-.02.24-.06c.07-.04.13-.09.17-.16.04-.07.06-.14.06-.23s-.02-.16-.06-.23c-.04-.07-.1-.12-.17-.16-.07-.04-.15-.06-.24-.06s-.17.02-.25.06c-.07.04-.13.09-.17.16-.04.07-.06.15-.06.23s.02.16.06.23Z"/>
  </g>
</svg>